<svg width="344" height="400" viewBox="0 0 344 400" fill="none" xmlns="http://www.w3.org/2000/svg">
<path d="M0 332.024L0 342.024H20V332.024H0ZM20 82.0243C20 76.5014 15.5228 72.0243 10 72.0243C4.47715 72.0243 0 76.5014 0 82.0243H20ZM20 332.024L20 82.0243H0L0 332.024H20Z" fill="#F7D50D"/>
<path d="M18.7556 332L101.928 260.011" stroke="#F7D50D" stroke-width="20" stroke-linecap="round"/>
<path d="M39.7556 345.372V355.372H59.7556V345.372H39.7556ZM59.7556 138C59.7556 132.477 55.2784 128 49.7556 128C44.2328 128 39.7556 132.477 39.7556 138H59.7556ZM59.7556 345.372L59.7556 138H39.7556L39.7556 345.372H59.7556Z" fill="#DB0680"/>
<path d="M165.756 232.372V242.372H185.756V232.372H165.756ZM185.756 25C185.756 19.4772 181.278 15 175.756 15C170.233 15 165.756 19.4772 165.756 25H185.756ZM185.756 232.372L185.756 25H165.756L165.756 232.372H185.756Z" fill="#DB0680"/>
<path d="M56.7556 345L175.756 242" stroke="#DB0680" stroke-width="20" stroke-linecap="round"/>
<path d="M283.756 281.372V291.372H303.756V281.372H283.756ZM303.756 74C303.756 68.4772 299.278 64 293.756 64C288.233 64 283.756 68.4772 283.756 74H303.756ZM303.756 281.372V74H283.756V281.372H303.756Z" fill="#C64DFF"/>
<path d="M141.211 181.339L133.65 187.884L146.739 203.006L154.3 196.461L141.211 181.339ZM222.35 137.561C226.526 133.947 226.981 127.631 223.366 123.456C219.752 119.28 213.437 118.825 209.261 122.439L222.35 137.561ZM154.3 196.461L222.35 137.561L209.261 122.439L141.211 181.339L154.3 196.461Z" fill="#0094CD"/>
<path d="M134.211 314.439L126.65 320.983L139.739 336.106L147.3 329.561L134.211 314.439ZM266.3 226.561C270.476 222.947 270.931 216.631 267.317 212.456C263.702 208.28 257.387 207.825 253.211 211.439L266.3 226.561ZM147.3 329.561L266.3 226.561L253.211 211.439L134.211 314.439L147.3 329.561Z" fill="#0094CD"/>
<path d="M293.756 35V10" stroke="#C64DFF" stroke-width="20" stroke-linecap="round"/>
<path d="M207.211 166.439L199.65 172.983L212.739 188.106L220.3 181.561L207.211 166.439ZM339.3 78.5611C343.476 74.9467 343.931 68.6314 340.317 64.4555C336.702 60.2797 330.387 59.8245 326.211 63.4389L339.3 78.5611ZM220.3 181.561L339.3 78.5611L326.211 63.4389L207.211 166.439L220.3 181.561Z" fill="#00CD21"/>
<path d="M212.211 291.439L204.65 297.983L217.739 313.106L225.3 306.561L212.211 291.439ZM338.716 208.394C342.892 204.78 343.347 198.464 339.733 194.289C336.119 190.113 329.803 189.658 325.627 193.272L338.716 208.394ZM225.3 306.561L338.716 208.394L325.627 193.272L212.211 291.439L225.3 306.561Z" fill="#00CD21"/>
<path d="M126.756 310.375V320.375H146.756V310.375H126.756ZM146.756 98C146.756 92.4771 142.278 88 136.756 88C131.233 88 126.756 92.4771 126.756 98H146.756ZM146.756 310.375L146.756 98H126.756L126.756 310.375H146.756Z" fill="#0094CD"/>
<path d="M199.756 389.375V399.375H219.756V389.375H199.756ZM219.756 177C219.756 171.477 215.278 167 209.756 167C204.233 167 199.756 171.477 199.756 177H219.756ZM219.756 389.375L219.756 177H199.756L199.756 389.375H219.756Z" fill="#00CD21"/>
<path d="M323.756 287.375V297.375H343.756V287.375H323.756ZM343.756 75C343.756 69.4771 339.278 65 333.756 65C328.233 65 323.756 69.4771 323.756 75H343.756ZM343.756 287.375L343.756 75H323.756L323.756 287.375H343.756Z" fill="#00CD21"/>
</svg>
