<?xml version="1.0" standalone="no"?>
<!DOCTYPE svg PUBLIC "-//W3C//DTD SVG 20010904//EN"
 "http://www.w3.org/TR/2001/REC-SVG-20010904/DTD/svg10.dtd">
<svg version="1.0" xmlns="http://www.w3.org/2000/svg"
 width="750.000000pt" height="750.000000pt" viewBox="0 0 750.000000 750.000000"
 preserveAspectRatio="xMidYMid meet">
<metadata>
Created by potrace 1.14, written by Peter Selinger 2001-2017
</metadata>
<g transform="translate(0.000000,750.000000) scale(0.100000,-0.100000)"
fill="#000000" stroke="none">
<path d="M4290 6378 c0 -5 -4 -6 -10 -3 -5 3 -10 2 -10 -2 0 -5 -9 -9 -21 -10
-12 -1 -27 -9 -33 -19 -7 -9 -24 -16 -38 -16 -17 0 -28 -7 -31 -19 -3 -12 -11
-16 -25 -12 -13 3 -25 -3 -34 -16 -8 -12 -18 -18 -21 -15 -4 4 -14 1 -24 -7
-15 -12 -16 -12 -8 1 10 17 -35 -18 -48 -37 -4 -6 -16 -10 -28 -8 -12 2 -22
-2 -26 -11 -5 -13 -7 -13 -14 -2 -7 10 -9 9 -9 -4 0 -11 -8 -18 -20 -18 -10 0
-24 -8 -29 -17 -8 -14 -10 -15 -11 -3 0 9 -3 11 -8 5 -13 -18 -53 -36 -64 -29
-6 4 -8 3 -5 -3 4 -6 -6 -13 -24 -17 -17 -3 -28 -10 -24 -16 4 -6 -7 -10 -26
-10 -24 0 -29 -3 -21 -13 9 -10 3 -12 -24 -12 -24 1 -39 -4 -49 -18 -7 -10
-18 -16 -23 -13 -6 3 -13 -1 -16 -10 -4 -10 -14 -14 -26 -11 -11 3 -18 0 -17
-7 1 -6 -8 -10 -20 -10 -12 1 -21 -3 -20 -8 2 -11 -70 -38 -79 -29 -4 3 -4 0
0 -6 4 -8 1 -13 -9 -13 -9 0 -13 -5 -10 -10 4 -7 -3 -9 -19 -6 -15 3 -24 1
-21 -3 2 -5 -3 -15 -12 -22 -14 -12 -16 -12 -8 1 5 10 1 9 -13 -3 -11 -11 -25
-16 -30 -13 -6 3 -13 -1 -16 -10 -3 -8 -10 -12 -16 -9 -5 3 -10 0 -10 -7 0 -9
-3 -9 -10 2 -8 13 -10 12 -10 -4 0 -11 -3 -16 -7 -13 -3 4 -15 -1 -26 -10 -11
-10 -17 -12 -13 -5 7 11 4 11 -12 1 -12 -7 -18 -17 -15 -23 4 -5 -1 -7 -10 -3
-10 3 -17 2 -17 -3 0 -6 -7 -10 -15 -10 -8 0 -15 -4 -15 -9 0 -5 -11 -8 -25
-7 -13 2 -23 -2 -22 -8 1 -6 -6 -10 -17 -8 -10 2 -15 -1 -12 -6 3 -6 -1 -13
-10 -16 -10 -4 -13 -2 -8 7 4 6 -5 1 -19 -12 -15 -14 -27 -19 -27 -13 0 7 -4
12 -10 12 -5 0 -6 -7 -3 -17 4 -11 3 -14 -5 -9 -7 4 -12 2 -12 -4 0 -6 -4 -8
-10 -5 -5 3 -10 2 -10 -4 0 -5 -9 -8 -20 -6 -11 2 -19 -1 -17 -8 1 -6 -2 -11
-8 -12 -5 0 -24 -8 -41 -18 -17 -9 -34 -13 -38 -10 -3 4 -6 1 -6 -5 0 -6 -18
-16 -40 -22 -22 -6 -46 -20 -53 -30 -13 -22 -32 -28 -22 -7 4 6 1 5 -7 -3 -18
-21 -67 -42 -80 -34 -6 4 -8 3 -5 -2 3 -6 -3 -16 -15 -23 -16 -10 -19 -10 -13
1 3 7 -1 4 -9 -6 -9 -11 -16 -16 -16 -11 0 4 -10 0 -22 -11 -12 -10 -18 -13
-14 -7 5 9 2 11 -8 7 -9 -3 -13 -10 -10 -15 3 -5 -4 -9 -16 -9 -14 0 -19 -4
-14 -12 5 -9 2 -9 -9 1 -15 12 -17 11 -17 -4 0 -9 -6 -15 -12 -12 -7 2 -19 -3
-26 -12 -10 -12 -12 -13 -6 -1 7 12 5 13 -8 3 -8 -7 -18 -9 -22 -5 -4 4 -6 1
-4 -7 1 -7 -6 -15 -16 -17 -10 -1 -23 -9 -27 -16 -7 -11 -9 -11 -9 1 0 8 -8 4
-21 -10 -11 -13 -18 -18 -14 -12 4 9 1 11 -9 7 -9 -3 -13 -10 -10 -15 3 -5 -2
-9 -10 -9 -9 0 -16 -5 -16 -11 0 -8 -5 -8 -15 1 -12 10 -15 10 -15 -4 0 -9 -8
-16 -20 -16 -11 0 -20 -4 -20 -9 0 -6 -9 -8 -20 -6 -11 2 -18 0 -15 -4 6 -11
-23 -23 -36 -15 -5 3 -8 0 -7 -8 2 -7 -7 -14 -19 -16 -13 -2 -23 -9 -23 -15 0
-7 -4 -6 -10 3 -8 13 -10 12 -10 -3 0 -9 -3 -16 -7 -16 -22 4 -33 -2 -27 -13
6 -10 4 -10 -8 0 -13 10 -17 10 -22 -3 -3 -8 -17 -15 -31 -15 -15 0 -24 -4
-21 -9 6 -9 -30 -24 -53 -21 -7 1 -10 -3 -7 -9 4 -5 2 -12 -4 -16 -5 -3 -10 0
-11 7 0 7 -4 4 -9 -7 -4 -11 -7 -44 -5 -72 1 -29 -2 -53 -7 -53 -5 0 -6 -5 -2
-11 3 -6 7 -33 9 -60 1 -41 -1 -49 -13 -44 -12 5 -13 3 -2 -10 15 -18 21 -295
7 -295 -5 0 -5 -6 0 -12 12 -21 14 -48 2 -48 -5 0 -7 -5 -3 -12 11 -17 12
-108 2 -108 -5 0 -6 -5 -2 -12 11 -17 12 -108 2 -108 -5 0 -6 -6 -1 -12 4 -7
7 -56 8 -108 0 -73 -4 -98 -15 -108 -11 -9 -12 -12 -1 -10 9 2 14 -10 16 -39
1 -24 -2 -43 -7 -43 -5 0 -6 -5 -2 -12 4 -6 8 -54 8 -107 1 -74 -2 -99 -14
-109 -12 -10 -13 -12 -1 -10 12 3 14 -17 14 -107 -1 -68 4 -115 11 -124 7 -9
7 -12 0 -8 -13 8 -13 -611 0 -632 6 -9 5 -12 -1 -8 -6 4 -10 -83 -10 -253 0
-165 4 -260 10 -260 6 0 7 -3 4 -7 -4 -3 7 -14 23 -24 17 -11 30 -24 30 -29 0
-6 4 -8 10 -5 5 3 10 -1 10 -9 0 -9 8 -16 18 -16 23 0 55 -33 45 -45 -5 -4 -2
-5 5 -1 6 4 12 2 12 -3 0 -6 7 -11 15 -11 8 0 15 -7 15 -16 0 -10 6 -14 14
-11 9 4 17 -2 21 -14 4 -10 15 -19 26 -19 11 0 18 -3 16 -7 -2 -5 4 -16 15
-25 10 -10 18 -15 18 -11 0 3 8 -4 19 -15 10 -12 24 -22 31 -22 7 0 10 -6 7
-13 -3 -8 3 -14 14 -14 10 -1 19 1 20 5 5 56 2 142 -6 142 -7 0 -7 3 0 8 11 8
13 47 3 57 -4 4 -3 17 2 30 5 14 5 26 -3 34 -7 7 -7 11 0 11 10 0 9 58 -2 89
-4 9 0 11 11 7 13 -5 14 -3 6 6 -6 7 -10 41 -11 76 0 34 -3 67 -6 72 -3 6 2
10 12 10 14 0 15 2 5 9 -20 12 -23 73 -4 66 12 -4 12 -3 3 9 -7 8 -11 23 -9
33 1 10 -1 24 -5 31 -5 7 -3 12 4 12 8 0 7 5 -2 17 -10 11 -10 14 -1 9 6 -4
12 -3 12 3 0 5 -5 13 -10 16 -6 4 -8 10 -5 15 11 17 13 90 3 84 -6 -4 -5 3 1
15 9 16 9 21 -1 21 -10 0 -10 2 1 9 11 7 11 9 0 14 -10 4 -10 6 -1 6 6 1 12 6
12 12 0 5 -5 7 -11 3 -8 -5 -8 -1 0 13 7 14 7 23 -1 31 -9 9 -8 12 6 12 9 0
14 5 11 10 -4 6 -11 7 -17 4 -7 -4 -8 -2 -4 4 12 19 13 81 2 86 -7 3 -6 5 2 5
6 1 12 6 12 12 0 5 -5 7 -11 3 -8 -4 -8 0 0 15 9 16 9 21 -1 21 -8 0 -9 3 -3
8 6 4 11 27 12 52 2 33 0 41 -8 30 -8 -11 -9 -9 -4 9 12 40 12 81 1 81 -7 0
-6 3 1 8 7 5 9 13 3 22 -6 9 -3 18 8 28 9 7 12 11 6 8 -7 -3 -14 4 -17 15 -4
15 -2 19 9 15 11 -4 12 -2 1 14 -9 16 -9 24 1 41 8 12 9 18 3 15 -5 -4 -12 -2
-16 4 -3 5 -1 10 5 10 6 0 8 5 5 11 -4 6 -8 24 -9 40 -2 22 1 28 12 24 12 -4
13 -3 2 10 -7 8 -10 28 -8 45 3 17 0 30 -6 30 -7 0 -7 3 -1 8 12 8 13 42 2 60
-5 7 -3 12 4 12 8 0 7 5 -2 17 -10 11 -10 14 -1 9 15 -9 16 6 0 22 -9 9 -9 12
1 12 11 0 11 3 0 17 -10 11 -10 14 -1 9 14 -8 14 0 3 29 -5 11 -4 25 1 33 7 8
7 12 0 12 -7 0 -8 10 -2 30 6 21 5 30 -3 30 -7 0 -6 4 3 10 9 6 10 10 3 10 -8
0 -9 9 -3 30 5 17 5 32 0 35 -6 3 -6 15 0 29 5 15 5 27 -3 35 -6 6 -7 11 -1
11 5 0 9 18 9 40 0 22 -4 40 -10 40 -5 0 -3 5 5 10 9 6 10 10 3 10 -8 0 -9 9
-3 30 6 21 5 30 -3 30 -9 0 -9 2 0 8 7 5 9 13 3 22 -6 9 -3 18 7 25 13 10 13
14 3 20 -9 6 -11 4 -5 -6 5 -8 4 -10 0 -6 -16 14 -14 37 3 37 11 0 13 3 6 8
-13 8 -25 64 -13 56 12 -7 11 7 0 25 -7 10 -4 19 7 29 9 7 12 11 6 8 -7 -3
-14 4 -17 15 -4 16 -2 19 10 15 13 -5 14 -4 4 8 -7 8 -11 23 -9 33 1 10 -1 24
-5 31 -5 7 -3 12 4 12 8 0 7 5 -2 17 -8 9 -9 14 -4 11 6 -4 10 20 10 63 0 38
-2 69 -5 69 -3 0 -6 9 -6 19 0 11 4 17 8 15 4 -3 8 4 8 15 0 12 5 21 11 21 5
0 7 -6 4 -12 -4 -7 -1 -6 7 3 15 17 104 62 124 62 7 0 11 4 9 8 -3 4 7 10 20
13 17 4 23 11 18 19 -4 7 2 5 12 -3 11 -9 16 -10 11 -2 -6 11 5 17 27 13 4 0
7 3 7 9 0 5 7 10 15 10 8 0 15 5 15 11 0 5 5 7 10 4 6 -3 22 2 38 13 15 11 33
17 41 14 8 -2 11 0 8 5 -3 5 9 16 28 23 19 8 35 17 35 20 0 4 6 7 13 7 19 0
91 35 102 51 6 7 15 13 20 12 23 -5 36 1 29 12 -5 8 0 9 14 6 14 -4 25 -1 30
9 5 8 13 16 18 16 5 1 8 5 7 8 -1 3 9 5 23 3 13 -1 22 2 18 7 -3 5 2 9 10 9 9
0 16 5 16 12 0 6 3 8 7 5 3 -4 15 1 26 10 11 10 17 12 13 5 -4 -7 16 1 44 18
28 17 48 25 45 18 -4 -7 -1 -6 7 2 20 23 53 47 44 33 -4 -7 -2 -13 3 -13 6 0
11 5 11 10 0 6 6 10 14 10 7 0 19 6 26 14 6 8 21 16 33 18 12 2 21 9 19 16 -1
8 2 11 8 7 6 -4 18 -1 27 7 14 11 16 11 8 -2 -4 -8 2 -5 14 8 24 24 36 29 26
10 -4 -7 -1 -6 7 2 7 8 20 16 28 18 8 2 23 11 33 19 9 9 17 12 17 7 0 -5 5 -1
11 9 9 15 13 16 27 5 9 -7 14 -8 10 -4 -5 5 2 15 15 22 62 35 87 45 97 39 6
-3 9 -1 8 6 -2 7 2 14 7 14 16 2 69 29 83 42 7 7 22 13 33 13 10 0 19 5 19 10
0 6 9 10 20 10 11 0 20 5 20 11 0 5 5 7 10 4 6 -3 10 -1 10 6 0 7 3 9 7 6 3
-4 15 1 26 10 10 10 20 17 21 16 4 -6 46 11 46 18 0 5 9 9 20 9 11 0 20 5 20
11 0 5 5 7 10 4 6 -3 10 -1 10 6 0 7 3 9 7 6 3 -4 12 1 20 11 8 9 12 12 9 6
-3 -6 1 -11 9 -11 8 0 13 5 12 11 -1 6 4 10 11 8 6 -1 12 3 12 10 0 6 3 8 6 5
4 -4 20 3 37 15 18 13 27 16 22 7 -4 -7 2 -4 14 9 12 12 31 22 42 22 11 0 18
4 15 9 -4 5 2 8 11 7 10 -2 24 4 31 13 11 13 12 13 7 1 -5 -11 -2 -10 7 2 8 9
26 20 41 23 15 4 27 11 27 17 0 5 5 6 10 3 6 -3 10 -1 10 4 0 6 3 10 8 10 20
-3 32 2 26 13 -4 6 -3 8 4 5 13 -9 44 2 37 13 -3 5 5 6 17 2 14 -3 19 -2 14 6
-5 8 1 12 14 12 13 0 19 4 14 12 -5 7 -3 8 6 3 7 -4 16 -2 20 5 4 7 21 13 38
14 19 1 28 5 25 14 -3 7 3 12 16 12 12 0 24 6 27 14 3 8 14 13 25 11 11 -2 22
2 26 10 3 8 9 15 15 15 5 0 6 -5 2 -12 -4 -7 -3 -8 5 -4 6 4 9 12 6 17 -4 5
-1 9 4 9 6 0 11 7 11 15 0 8 6 15 13 15 7 0 8 3 2 8 -11 8 -18 28 -18 52 0 8
-7 24 -16 34 -11 13 -12 17 -2 11 10 -5 8 2 -4 23 -10 17 -22 29 -27 26 -4 -3
-8 0 -8 7 0 6 -11 22 -24 34 -14 13 -22 27 -18 31 4 5 -1 2 -11 -5 -15 -12
-17 -12 -11 5 4 10 3 16 -1 11 -5 -4 -19 0 -33 9 -18 12 -23 12 -17 3 3 -8 -1
-5 -9 5 -12 15 -16 16 -16 5 0 -9 -3 -10 -8 -3 -9 14 -132 16 -132 2z m-656
-326 c3 -5 -1 -9 -9 -9 -8 0 -12 4 -9 9 3 4 7 8 9 8 2 0 6 -4 9 -8z m-919
-462 c-3 -5 -12 -10 -18 -10 -7 0 -6 4 3 10 19 12 23 12 15 0z"/>
<path d="M4930 5993 c0 -5 -15 -7 -32 -7 -18 1 -39 -4 -47 -10 -12 -9 -13 -8
-6 4 8 13 7 13 -8 1 -10 -8 -20 -11 -24 -8 -3 4 -12 -1 -20 -11 -10 -11 -12
-12 -8 -2 4 8 -1 6 -9 -4 -9 -11 -16 -16 -16 -12 0 5 -11 1 -25 -8 -14 -9 -25
-13 -25 -9 0 5 -4 3 -8 -2 -4 -6 -25 -19 -47 -29 -22 -10 -47 -23 -55 -28 -8
-4 -27 -13 -42 -19 -16 -6 -28 -15 -28 -21 0 -5 -4 -7 -9 -3 -5 3 -16 -2 -24
-10 -9 -8 -24 -16 -34 -18 -10 -1 -29 -10 -43 -20 -13 -9 -32 -17 -42 -17 -9
0 -19 -4 -22 -9 -8 -13 -86 -52 -86 -43 0 4 -4 2 -8 -3 -4 -6 -34 -24 -67 -40
-33 -15 -63 -33 -66 -38 -3 -5 -10 -8 -15 -8 -19 2 -44 -11 -39 -20 3 -5 0 -6
-8 -3 -8 3 -31 -6 -52 -20 -21 -14 -44 -26 -51 -26 -8 0 -14 -5 -14 -11 0 -5
-4 -8 -9 -5 -5 3 -21 -4 -37 -16 -15 -13 -24 -16 -19 -8 6 10 2 9 -12 -3 -11
-9 -23 -14 -26 -10 -4 3 -7 1 -7 -5 0 -7 -12 -12 -27 -13 -16 0 -22 -3 -14 -6
9 -4 3 -10 -19 -19 -17 -8 -36 -12 -40 -9 -4 3 -10 -2 -14 -10 -3 -8 -15 -15
-26 -15 -12 0 -18 -4 -15 -10 5 -9 -18 -15 -29 -7 -2 1 -12 -5 -22 -13 -21
-17 -81 -51 -89 -50 -20 1 -25 -1 -20 -9 3 -6 -4 -8 -15 -6 -11 2 -18 0 -15
-6 4 -5 -1 -9 -9 -9 -9 0 -16 -5 -16 -12 0 -6 -3 -9 -6 -5 -4 3 -21 -1 -38
-10 -17 -10 -34 -16 -38 -15 -5 1 -8 -3 -8 -9 0 -5 -4 -7 -10 -4 -5 3 -10 1
-10 -5 0 -6 -5 -8 -10 -5 -6 3 -13 -1 -16 -9 -3 -9 -10 -14 -14 -11 -5 3 -11
1 -15 -5 -4 -6 -11 -8 -16 -5 -5 4 -12 -1 -15 -10 -5 -12 -9 -13 -21 -4 -11
10 -13 10 -11 -1 2 -8 -1 -14 -7 -15 -5 0 -16 -4 -22 -8 -7 -5 -18 -5 -23 -2
-6 4 -9 1 -8 -7 2 -7 -3 -12 -9 -10 -7 1 -13 -3 -13 -9 0 -5 -4 -7 -10 -4 -5
3 -10 1 -10 -4 0 -6 -9 -11 -20 -11 -11 0 -23 -7 -26 -15 -4 -8 -10 -13 -14
-10 -5 3 -11 1 -15 -5 -4 -6 -11 -8 -16 -5 -5 4 -9 1 -9 -6 0 -7 -3 -9 -6 -6
-4 4 -20 -3 -35 -14 -16 -11 -29 -18 -29 -15 0 4 -18 -5 -39 -18 -21 -14 -42
-22 -45 -19 -3 4 -6 0 -6 -7 0 -7 -3 -10 -6 -7 -4 3 -18 -2 -32 -13 -13 -11
-28 -17 -33 -14 -5 3 -9 0 -9 -6 0 -7 -6 -10 -14 -7 -8 3 -17 -1 -20 -9 -3 -9
-10 -12 -16 -9 -5 3 -10 2 -10 -2 0 -10 -70 -39 -83 -35 -5 1 -6 -2 -3 -7 5
-8 -19 -22 -44 -26 -13 -2 -56 -29 -62 -39 -5 -7 -8 -6 -8 3 0 9 -7 6 -20 -9
-11 -13 -20 -20 -20 -16 0 3 -26 -7 -59 -23 -32 -17 -61 -27 -65 -24 -3 4 -6
1 -6 -6 0 -8 -6 -11 -16 -7 -8 3 -13 2 -10 -3 3 -5 -1 -12 -10 -15 -8 -3 -13
-10 -10 -15 4 -5 0 -11 -6 -14 -10 -3 -10 -7 0 -19 9 -12 10 -18 2 -23 -8 -5
-8 -11 -1 -19 6 -7 8 -16 4 -20 -12 -12 -12 -36 0 -36 8 0 7 -3 -1 -9 -17 -11
-17 -21 0 -32 11 -7 11 -9 -1 -9 -10 0 -11 -3 -2 -13 6 -8 8 -17 4 -21 -12
-12 -12 -36 0 -36 8 0 7 -3 -2 -9 -9 -6 -10 -10 -2 -16 9 -5 9 -10 1 -20 -8
-10 -8 -15 0 -20 8 -5 8 -10 0 -20 -8 -10 -8 -15 0 -20 8 -5 8 -10 0 -20 -8
-9 -8 -15 0 -20 7 -4 7 -12 0 -25 -7 -13 -7 -21 0 -25 8 -5 7 -11 -1 -21 -9
-11 -8 -14 2 -14 11 0 11 -2 0 -9 -12 -8 -12 -12 -2 -24 8 -11 9 -17 1 -22 -6
-4 -7 -12 -3 -18 10 -15 10 -38 0 -54 -4 -6 -3 -15 3 -18 8 -5 7 -11 -1 -21
-8 -10 -8 -18 0 -27 7 -10 7 -17 0 -24 -8 -8 -8 -13 0 -17 8 -5 8 -13 1 -27
-8 -14 -7 -19 2 -19 10 0 10 -2 -1 -9 -7 -5 -9 -11 -4 -14 10 -6 10 -48 0 -64
-4 -7 -3 -15 3 -18 8 -5 7 -11 -1 -21 -9 -11 -9 -17 0 -28 9 -10 9 -16 1 -21
-8 -5 -8 -10 0 -20 8 -10 8 -15 -1 -20 -8 -6 -7 -10 2 -16 9 -6 10 -9 2 -9
-12 0 -12 -17 0 -37 4 -6 2 -15 -4 -19 -8 -4 -7 -9 2 -15 12 -7 12 -9 0 -9
-10 0 -11 -3 -2 -14 9 -11 9 -16 0 -21 -8 -6 -7 -10 2 -16 11 -7 11 -9 1 -9
-8 0 -10 -5 -5 -12 10 -17 10 -39 0 -60 -5 -12 -4 -18 5 -18 10 0 10 -2 -1 -9
-9 -6 -10 -10 -2 -16 9 -5 9 -10 0 -21 -9 -11 -8 -14 2 -14 12 0 12 -2 0 -9
-8 -5 -9 -11 -3 -15 10 -6 8 -47 -2 -65 -4 -5 -2 -13 4 -16 8 -5 8 -11 0 -20
-8 -10 -8 -15 0 -20 8 -5 8 -11 -1 -21 -9 -11 -8 -14 2 -14 9 0 10 -3 4 -8
-10 -6 -11 -20 -5 -39 6 -19 5 -39 -3 -50 -4 -6 -3 -14 3 -18 7 -4 8 -11 2
-18 -13 -16 -11 -47 2 -47 6 0 5 -4 -3 -9 -9 -6 -10 -11 -2 -15 8 -5 8 -13 1
-27 -8 -14 -7 -19 2 -19 10 0 10 -2 -1 -9 -7 -5 -9 -11 -4 -14 10 -6 10 -48 0
-64 -4 -7 -3 -15 3 -18 8 -5 7 -11 -1 -21 -9 -11 -9 -17 0 -28 9 -10 9 -16 1
-21 -8 -5 -8 -10 0 -20 8 -10 8 -15 0 -20 -8 -5 -8 -10 0 -20 8 -10 8 -15 0
-20 -8 -5 -8 -10 0 -20 8 -10 8 -15 -1 -20 -8 -6 -7 -10 2 -16 12 -7 12 -9 0
-9 -10 0 -11 -3 -2 -14 7 -9 8 -17 2 -20 -10 -7 -10 -24 2 -43 4 -6 3 -15 -3
-18 -8 -5 -8 -11 0 -20 8 -10 8 -15 -1 -20 -8 -6 -7 -10 2 -16 12 -7 12 -9 0
-9 -10 0 -11 -3 -2 -14 7 -9 8 -17 2 -20 -8 -5 -8 -26 -1 -46 6 -14 5 -37 -3
-53 -5 -11 -4 -17 4 -17 9 0 9 -3 0 -14 -9 -10 -9 -16 -1 -21 8 -5 8 -11 -1
-21 -9 -11 -9 -17 0 -28 9 -10 9 -16 1 -21 -8 -5 -8 -10 0 -20 8 -10 8 -15 0
-20 -8 -5 -8 -10 0 -20 8 -10 8 -15 0 -20 -8 -5 -7 -11 2 -23 11 -13 11 -14
-2 -7 -13 8 -13 7 -1 -8 9 -11 10 -17 2 -17 -13 0 -10 -22 4 -32 6 -5 6 -8 -2
-8 -12 0 -12 -24 0 -36 4 -4 2 -13 -4 -21 -9 -10 -8 -13 2 -13 9 0 10 -3 3 -8
-5 -4 -10 -18 -10 -32 0 -14 5 -28 10 -32 8 -5 8 -8 0 -8 -6 0 -11 -7 -11 -15
0 -8 4 -15 9 -15 4 0 8 -9 8 -20 0 -11 4 -20 9 -20 5 0 23 -13 39 -30 17 -16
35 -30 41 -30 6 0 11 -5 11 -11 0 -5 5 -7 10 -4 6 3 10 -1 10 -9 0 -9 4 -16
10 -16 5 0 18 -10 30 -22 11 -12 20 -19 20 -15 0 3 13 -6 29 -21 45 -43 70
-62 82 -62 5 0 7 -5 4 -10 -3 -5 -3 -10 2 -10 4 0 24 -14 43 -30 19 -16 38
-30 42 -30 14 0 18 18 6 24 -10 5 -10 7 0 12 10 5 10 9 1 20 -9 11 -8 14 2 14
12 0 12 2 0 9 -9 6 -10 10 -2 16 9 5 9 10 0 21 -9 11 -8 14 2 14 10 0 10 3 1
12 -7 7 -8 17 -2 29 7 12 6 20 -1 25 -8 4 -7 9 2 15 12 7 12 9 0 9 -10 0 -11
3 -2 14 9 11 9 16 0 21 -8 6 -7 10 2 16 11 7 11 9 1 9 -10 0 -10 5 -1 21 9 17
8 20 -3 13 -11 -6 -11 -5 1 9 9 12 10 17 2 17 -7 0 -9 5 -4 13 10 16 11 68 1
89 -5 10 -3 18 5 21 9 4 9 6 -1 6 -10 1 -10 6 -2 21 8 15 8 20 -1 20 -8 0 -8
4 1 15 10 12 10 15 0 15 -9 0 -10 3 -1 13 8 10 7 17 -1 25 -9 9 -9 12 1 12 10
0 11 3 2 13 -8 10 -7 17 2 27 10 10 9 11 -3 5 -13 -8 -13 -7 -1 8 9 12 10 17
2 17 -7 0 -9 5 -4 13 10 16 11 68 0 89 -5 12 -4 18 5 18 10 0 10 2 0 9 -15 9
-15 20 -1 38 7 7 6 14 -1 18 -8 5 -8 10 0 20 8 10 8 15 0 20 -8 5 -8 10 0 20
8 9 8 15 0 20 -6 3 -7 12 -3 18 11 18 11 47 0 47 -5 0 -4 7 3 15 10 12 10 15
0 15 -10 0 -10 3 0 15 10 12 10 15 0 15 -9 0 -9 4 -2 13 7 8 7 18 2 27 -5 8
-5 21 1 32 7 13 6 18 -2 18 -8 0 -8 4 1 15 10 12 10 15 0 15 -9 0 -9 4 -2 13
7 8 7 18 2 27 -5 8 -5 21 1 32 5 10 6 18 1 18 -10 0 -9 30 1 47 4 6 3 15 -3
18 -8 5 -8 11 0 20 8 10 8 15 0 20 -8 5 -8 10 0 20 8 9 8 15 0 20 -6 3 -7 12
-3 18 10 17 10 110 0 125 -6 8 -5 12 3 12 10 0 10 3 1 14 -9 10 -9 16 -1 21 8
5 8 11 -1 21 -9 11 -9 14 1 14 10 0 10 3 1 14 -9 11 -9 15 1 19 10 4 10 6 -1
6 -11 1 -11 4 -1 16 10 12 10 15 0 15 -10 0 -10 3 -1 14 7 8 8 17 3 20 -10 6
-9 36 1 53 4 6 3 15 -3 18 -8 5 -8 11 0 20 8 10 8 15 0 20 -8 5 -8 10 0 20 8
9 8 15 0 20 -6 3 -7 12 -3 18 11 18 11 47 0 47 -5 0 -4 7 3 15 10 12 10 15 0
15 -10 0 -10 3 0 15 10 12 10 15 0 15 -9 0 -9 4 -2 13 7 8 7 18 2 27 -5 8 -5
21 1 32 7 13 6 18 -2 18 -8 0 -8 4 1 15 7 8 8 15 3 15 -5 0 -10 7 -10 15 0 8
5 15 10 15 5 0 4 6 -2 14 -9 10 -9 16 -1 21 6 4 7 12 3 18 -10 15 -10 38 0 54
4 6 3 15 -3 18 -8 5 -8 11 0 20 8 10 8 15 0 20 -8 5 -8 10 0 20 8 9 8 15 0 20
-6 3 -7 12 -3 18 10 17 10 110 0 125 -6 8 -5 12 3 12 10 0 10 3 1 14 -9 10 -9
16 -1 21 8 5 8 10 0 20 -8 10 -7 14 2 18 10 4 10 6 -1 6 -11 1 -11 4 -1 16 10
12 10 15 0 15 -10 0 -10 3 0 15 10 12 10 15 0 15 -9 0 -10 3 -1 13 8 10 7 17
-1 25 -9 9 -9 12 3 12 12 0 12 2 0 9 -12 8 -12 12 -2 24 8 11 9 17 1 22 -8 5
-8 10 0 20 8 10 8 15 0 20 -8 5 -8 10 0 20 8 10 8 15 0 20 -8 5 -7 11 2 23 11
13 11 14 -2 7 -12 -7 -12 -4 2 15 9 14 21 24 27 22 6 -1 11 2 11 7 0 5 14 12
30 16 17 4 30 10 30 15 0 8 38 23 53 21 4 -1 7 4 7 10 0 6 6 9 12 7 7 -3 21 4
32 14 11 10 28 18 37 18 10 0 19 5 21 10 2 6 14 12 27 15 14 2 28 10 33 17 4
7 8 9 8 3 0 -7 3 -7 8 0 4 6 18 16 31 23 19 11 22 11 16 0 -3 -7 1 -4 9 6 9
11 16 17 16 13 0 -4 11 0 25 9 13 8 30 12 36 8 8 -4 9 -3 5 4 -6 11 6 16 27
13 4 0 7 3 7 7 0 12 51 36 69 33 7 -1 10 2 6 8 -3 7 2 11 14 11 12 0 21 5 21
11 0 5 5 7 10 4 6 -3 10 -2 10 2 0 5 9 9 20 10 11 1 27 9 36 17 8 9 20 16 26
16 6 0 17 8 25 18 8 9 11 11 8 4 -6 -11 -3 -11 16 0 13 7 32 19 42 27 9 8 17
11 17 6 0 -4 7 -2 15 5 8 7 15 9 15 4 0 -5 5 -1 11 9 5 9 19 17 29 17 11 0 20
5 20 11 0 5 5 7 10 4 6 -3 10 -1 10 4 0 6 9 11 19 11 11 0 21 3 23 8 4 10 90
52 106 52 6 0 12 4 12 9 0 5 17 15 38 22 20 6 51 21 67 33 17 11 30 20 30 18
0 -1 15 3 33 10 17 7 32 16 32 20 0 4 9 8 20 8 11 0 20 5 20 11 0 5 5 7 10 4
6 -3 10 -1 10 4 0 6 9 11 20 11 11 0 20 4 20 10 0 5 3 9 8 8 4 -1 17 3 30 10
12 7 22 9 22 5 0 -4 7 2 15 13 8 10 15 15 15 10 0 -5 10 -1 22 10 13 12 18 13
13 4 -7 -13 -6 -13 11 1 10 8 42 26 69 40 28 13 53 29 57 34 5 6 8 4 8 -5 1
-10 5 -7 13 8 7 12 16 20 20 16 3 -4 18 1 32 10 13 9 26 15 27 14 2 -1 14 5
28 12 14 8 28 13 33 12 4 -1 7 2 7 7 0 9 18 17 45 23 6 1 16 8 23 15 7 7 20
13 28 13 8 0 14 4 14 9 0 6 9 8 20 6 11 -2 18 0 16 4 -5 8 36 32 64 37 8 2 16
7 18 13 2 5 10 7 19 4 11 -4 14 -2 9 5 -5 8 0 12 13 12 12 0 21 5 21 10 0 6 3
10 8 9 15 -2 52 14 52 23 0 5 5 6 10 3 6 -3 10 -1 10 4 0 6 9 11 20 11 11 0
20 5 20 10 0 6 3 10 8 9 14 -2 52 14 52 22 0 5 7 5 17 2 11 -4 14 -3 9 5 -5 8
0 12 13 12 12 0 21 4 21 10 0 6 3 9 8 8 4 -1 17 3 30 10 12 7 22 10 22 6 0 -4
11 6 24 21 20 24 23 32 14 49 -6 12 -11 23 -10 26 4 15 -20 80 -28 75 -6 -4
-10 1 -10 11 0 9 -19 35 -42 58 -23 22 -38 34 -34 26 4 -9 2 -8 -7 2 -8 10
-17 15 -20 11 -4 -3 -7 -1 -7 6 0 8 -6 11 -16 7 -12 -5 -15 -2 -10 10 5 13 3
14 -6 7 -18 -13 -44 -10 -40 5 1 7 -2 12 -8 12 -5 0 -10 -3 -10 -7z"/>
<path d="M5404 5593 c7 -12 -11 -17 -51 -16 -7 1 -13 -7 -14 -16 0 -10 -2 -11
-6 -4 -3 10 -8 9 -20 -2 -8 -8 -19 -13 -24 -9 -5 3 -8 0 -7 -7 2 -7 -4 -13
-12 -14 -8 0 -25 -6 -36 -12 -12 -7 -25 -9 -29 -5 -5 4 -5 1 -1 -5 4 -7 2 -14
-3 -14 -29 -4 -111 -41 -111 -51 0 -4 -8 -8 -17 -8 -10 0 -27 -7 -37 -15 -11
-8 -27 -15 -37 -15 -9 0 -19 -7 -23 -15 -3 -8 -15 -15 -26 -15 -11 0 -20 -5
-20 -11 0 -6 -7 -9 -15 -5 -8 3 -15 2 -15 -3 0 -5 -11 -12 -25 -15 -17 -4 -23
-11 -18 -19 4 -7 -2 -5 -12 3 -11 9 -16 10 -11 3 6 -12 -5 -18 -27 -14 -4 0
-6 -4 -5 -10 2 -6 -10 -13 -27 -15 -16 -2 -35 -10 -41 -19 -6 -8 -18 -15 -27
-15 -9 0 -23 -7 -31 -16 -9 -8 -16 -12 -16 -8 0 3 -7 1 -15 -6 -8 -7 -15 -9
-15 -4 0 5 -5 2 -10 -6 -5 -8 -14 -16 -20 -16 -5 -1 -12 -3 -15 -4 -3 -1 -10
-3 -15 -4 -6 0 -14 -7 -19 -14 -5 -8 -10 -13 -12 -12 -8 3 -44 -14 -51 -23 -3
-6 -18 -11 -34 -13 -15 -2 -30 -7 -33 -11 -3 -4 -15 -15 -25 -23 -18 -13 -19
-13 -11 0 4 8 -7 2 -25 -15 -18 -16 -30 -24 -26 -17 4 6 2 12 -3 12 -6 0 -11
-7 -11 -16 0 -8 -4 -13 -9 -10 -10 6 -61 -16 -61 -26 0 -5 -6 -8 -14 -8 -17 0
-80 -32 -84 -43 -2 -4 -8 -5 -13 -1 -5 3 -9 0 -9 -5 0 -6 -8 -11 -17 -11 -10
0 -27 -7 -37 -15 -11 -8 -28 -15 -39 -15 -10 0 -16 -4 -12 -10 3 -5 -13 -14
-35 -20 -25 -7 -38 -15 -34 -22 4 -6 3 -8 -4 -4 -6 3 -13 2 -17 -4 -4 -6 -10
-8 -15 -5 -5 3 -15 -2 -24 -10 -8 -9 -17 -15 -18 -14 -2 1 -22 -8 -44 -19 -23
-12 -44 -18 -48 -15 -3 4 -6 -1 -6 -10 0 -10 -3 -16 -7 -16 -24 4 -53 -2 -49
-10 7 -11 -22 -23 -35 -15 -5 3 -9 0 -9 -6 0 -6 -4 -8 -10 -5 -5 3 -10 2 -10
-4 0 -5 -10 -13 -22 -17 -13 -3 -30 -13 -39 -21 -9 -8 -26 -15 -38 -16 -11 -1
-23 -7 -25 -14 -3 -7 -14 -13 -25 -13 -11 0 -23 -5 -26 -11 -4 -6 -14 -8 -22
-5 -8 3 -12 2 -8 -3 3 -5 -8 -12 -25 -16 -16 -4 -30 -10 -30 -15 0 -4 -11 -11
-25 -14 -14 -4 -24 -10 -21 -14 2 -4 -8 -8 -22 -9 -14 0 -31 -8 -38 -17 -6 -9
-18 -16 -27 -16 -9 0 -19 -5 -22 -11 -4 -6 -14 -8 -22 -5 -8 3 -12 2 -9 -3 3
-5 -6 -12 -19 -15 -14 -4 -24 -10 -21 -14 2 -4 -7 -9 -22 -10 -14 -1 -28 -6
-31 -11 -3 -4 -30 -19 -58 -33 -29 -14 -50 -28 -47 -31 3 -3 -4 -3 -17 0 -15
4 -20 3 -15 -5 6 -11 -13 -17 -30 -9 -3 1 -10 -6 -15 -15 -6 -10 -19 -18 -30
-18 -11 0 -30 -10 -42 -21 -12 -12 -17 -19 -10 -15 8 4 11 -1 10 -14 -1 -11
-6 -20 -12 -20 -5 0 -4 -4 3 -9 17 -11 17 -21 0 -32 -10 -7 -10 -9 0 -9 10 0
10 -5 1 -21 -8 -15 -8 -19 0 -15 14 9 14 0 0 -26 -8 -15 -8 -19 0 -14 6 4 11
4 11 1 0 -4 -5 -16 -11 -27 -8 -15 -8 -19 0 -14 14 9 14 0 0 -26 -8 -15 -8
-19 0 -14 6 4 11 4 11 1 0 -4 -5 -16 -11 -27 -8 -15 -8 -19 0 -14 14 9 14 0 0
-26 -8 -15 -8 -19 0 -14 6 4 11 2 11 -3 0 -6 -6 -11 -12 -11 -9 0 -10 -3 -2
-8 12 -7 13 -47 1 -58 -3 -3 2 -18 11 -33 13 -20 13 -23 2 -14 -12 9 -15 7
-15 -13 0 -17 4 -23 14 -19 11 4 10 1 -2 -13 -9 -10 -15 -21 -11 -24 3 -3 7
-20 9 -37 3 -23 1 -30 -8 -24 -9 5 -9 3 -2 -8 12 -17 13 -39 1 -58 -6 -9 -5
-12 2 -7 7 4 10 -1 9 -14 -1 -11 -5 -20 -10 -20 -5 0 -3 -8 4 -17 12 -14 12
-16 0 -8 -11 6 -12 5 -5 -6 13 -20 12 -109 -1 -101 -7 4 -7 1 0 -9 12 -17 13
-39 1 -58 -6 -9 -5 -12 2 -7 7 4 10 -1 9 -14 -1 -11 -4 -20 -7 -20 -4 0 -7 -7
-7 -15 0 -8 4 -12 8 -10 4 3 6 -6 5 -20 0 -14 -5 -25 -11 -25 -5 0 -4 -4 3 -9
17 -11 17 -21 0 -32 -7 -5 -8 -9 -2 -9 6 0 11 -7 11 -15 0 -8 -5 -15 -11 -15
-6 0 -5 -4 2 -9 17 -11 17 -21 0 -32 -7 -5 -8 -9 -2 -9 6 0 11 -7 11 -15 0 -8
-5 -15 -11 -15 -6 0 -5 -4 2 -9 17 -11 17 -21 0 -32 -7 -5 -8 -9 -2 -9 14 0
14 -30 0 -30 -6 0 -5 -4 2 -9 17 -11 17 -21 0 -32 -10 -7 -10 -9 0 -9 6 0 12
-5 12 -11 0 -5 -6 -7 -12 -3 -10 6 -10 4 -3 -7 12 -17 13 -39 1 -58 -6 -9 -5
-12 2 -7 7 4 10 -1 9 -14 -1 -11 -5 -20 -10 -20 -5 0 -3 -8 4 -17 12 -15 12
-16 -1 -8 -12 6 -13 5 -2 -6 13 -14 17 -43 4 -35 -4 2 -8 -4 -8 -14 0 -10 3
-17 7 -14 4 2 7 -7 7 -21 0 -16 -5 -22 -12 -18 -8 5 -8 3 -1 -8 12 -17 13 -39
1 -58 -6 -9 -5 -12 2 -7 7 4 10 -1 9 -14 -1 -11 -5 -20 -10 -20 -5 0 -3 -8 4
-17 12 -15 12 -16 -1 -8 -12 6 -13 5 -2 -6 13 -14 17 -43 4 -35 -4 2 -8 -4 -8
-14 0 -10 3 -17 7 -14 4 2 7 -7 7 -21 0 -16 -5 -22 -12 -18 -8 5 -8 3 -1 -8
12 -17 13 -39 1 -58 -6 -9 -5 -12 2 -7 7 4 10 -1 9 -14 -1 -11 -4 -20 -7 -20
-4 0 -7 -7 -7 -15 0 -8 4 -12 9 -9 12 8 10 -10 -4 -24 -7 -7 -8 -12 -3 -12 6
0 10 -18 11 -40 0 -25 -3 -37 -10 -33 -8 5 -8 2 -1 -8 12 -17 13 -39 1 -58 -6
-10 -5 -12 2 -7 15 9 12 -36 -3 -46 -6 -5 -5 -8 3 -8 11 0 12 -16 1 -55 -1 -5
1 -18 6 -29 5 -12 3 -21 -6 -27 -8 -5 -9 -9 -4 -9 6 0 10 -18 11 -40 0 -23 -3
-37 -9 -33 -6 4 -7 1 -2 -8 12 -19 14 -49 3 -55 -4 -3 -8 -11 -8 -17 0 -7 4
-6 10 3 6 10 9 6 8 -18 -1 -20 -5 -29 -12 -25 -8 5 -8 3 -1 -8 12 -17 13 -39
1 -58 -6 -10 -5 -12 3 -7 15 10 11 -25 -4 -37 -7 -5 -7 -10 0 -15 15 -10 16
-84 1 -75 -8 5 -8 3 0 -8 12 -14 11 -31 -1 -61 -4 -11 -3 -18 5 -18 6 0 8 5 4
12 -5 7 -3 8 5 3 9 -5 9 -11 3 -17 -6 -6 -8 -17 -5 -26 5 -11 3 -13 -8 -7 -11
7 -11 5 1 -10 8 -10 15 -19 14 -19 0 -1 -6 -12 -13 -25 -11 -19 -11 -22 0 -16
9 6 11 3 6 -8 -7 -18 15 -41 29 -29 5 4 6 3 2 -2 -8 -10 15 -36 32 -36 6 0 9
-4 6 -8 -2 -4 9 -14 25 -21 16 -7 27 -17 23 -22 -3 -5 0 -9 7 -9 6 0 18 -8 25
-17 7 -10 16 -18 21 -18 5 0 19 -10 33 -22 13 -13 28 -23 32 -23 5 0 6 -4 3
-10 -3 -5 1 -10 9 -10 8 0 22 -10 30 -22 9 -12 16 -20 16 -16 0 3 16 -9 36
-27 44 -41 70 -49 70 -24 0 11 -4 19 -9 19 -5 0 -5 6 1 13 7 8 7 18 2 27 -12
18 -13 33 -2 26 10 -6 9 35 -1 51 -4 6 -1 13 5 16 10 3 10 7 1 17 -8 9 -9 19
-2 32 7 13 6 18 -2 18 -8 0 -7 5 2 17 12 15 12 16 -1 8 -13 -8 -13 -7 -1 8 11
14 11 17 0 17 -11 0 -11 2 1 10 13 9 13 10 0 10 -13 0 -13 1 0 10 13 8 13 10
1 10 -12 0 -12 3 -3 12 7 7 12 17 12 23 0 5 -5 3 -10 -5 -6 -9 -10 -10 -10 -3
0 6 5 15 11 19 8 4 7 9 -2 15 -12 8 -11 11 1 19 11 7 12 12 3 21 -8 8 -9 18
-2 31 6 12 6 18 0 18 -7 0 -7 9 -1 25 6 16 6 25 0 25 -6 0 -10 5 -10 11 0 5 6
7 13 3 9 -6 9 -5 0 7 -10 12 -10 18 0 29 10 10 9 11 -3 5 -13 -8 -13 -7 -1 8
11 14 11 17 0 17 -12 0 -12 2 0 9 11 7 11 9 0 14 -12 5 -11 7 1 16 11 8 12 13
3 22 -8 8 -9 18 -2 31 6 12 6 18 0 18 -7 0 -7 9 -1 25 6 16 6 25 0 25 -6 0
-10 5 -10 11 0 5 6 7 13 3 9 -6 9 -5 0 7 -10 12 -10 18 0 29 10 10 9 11 -3 5
-13 -8 -13 -7 -1 8 11 14 11 17 0 17 -12 0 -12 2 0 9 11 7 11 9 0 14 -12 5
-11 7 1 16 11 8 12 13 3 22 -8 8 -9 18 -2 31 6 12 6 18 0 18 -7 0 -7 9 -1 25
6 16 6 25 0 25 -6 0 -10 5 -10 11 0 5 6 7 13 3 9 -6 9 -5 0 7 -10 12 -10 18
-1 27 9 9 9 12 -3 12 -12 0 -12 2 1 10 10 6 11 10 3 10 -7 0 -13 5 -13 11 0 5
6 7 13 3 9 -6 9 -4 -1 8 -10 13 -10 17 0 21 10 3 10 7 1 17 -8 9 -9 19 -2 32
6 12 6 18 0 18 -7 0 -7 9 -1 25 7 17 6 25 -1 25 -8 0 -8 4 -1 13 12 14 11 35
-1 55 -5 7 -3 12 4 12 10 0 10 3 1 12 -7 7 -12 17 -12 22 0 6 5 4 10 -4 8 -12
10 -11 7 5 -1 11 -6 26 -10 33 -5 7 -3 12 4 12 10 0 10 3 1 12 -7 7 -12 17
-12 22 0 6 5 4 10 -4 8 -12 10 -11 7 5 -1 11 -6 26 -10 33 -5 7 -3 12 4 12 10
0 10 3 1 12 -7 7 -12 17 -12 23 0 5 5 3 10 -5 8 -12 10 -11 7 5 -1 11 -6 26
-10 33 -5 7 -3 12 4 12 8 0 8 4 -1 15 -10 11 -10 18 -1 29 9 11 9 15 -1 20
-11 5 -11 7 0 12 10 5 10 9 1 20 -9 11 -9 17 0 28 9 11 9 15 -1 20 -11 5 -11
7 0 12 10 5 10 9 1 20 -9 11 -9 17 0 28 9 11 9 15 -1 20 -11 5 -11 7 0 12 10
5 10 9 1 20 -9 11 -9 17 0 28 9 11 9 15 -1 19 -8 4 -9 8 -3 14 14 11 17 33 5
33 -6 0 -6 9 0 25 6 16 6 25 0 25 -6 0 -10 5 -10 11 0 5 6 7 13 3 9 -6 9 -5 0
7 -10 12 -10 18 -1 27 9 9 9 12 -3 12 -12 0 -12 2 1 10 10 6 11 10 3 10 -7 0
-13 5 -13 11 0 5 6 7 13 3 9 -6 9 -4 -1 8 -10 13 -10 17 0 21 10 3 10 7 1 17
-8 9 -9 19 -2 32 7 12 6 18 -1 18 -6 0 -9 4 -6 8 11 18 14 62 5 68 -6 4 -6 11
2 20 9 11 8 14 -2 14 -11 0 -11 2 1 10 10 6 11 10 3 10 -7 0 -13 5 -13 11 0 5
6 7 13 3 9 -6 9 -4 -1 8 -10 13 -10 17 0 21 10 3 10 7 1 17 -8 9 -9 19 -2 32
7 12 6 18 -1 18 -6 0 -9 4 -6 8 11 18 14 62 5 68 -6 4 -6 11 2 20 9 11 8 14
-2 14 -11 0 -11 2 1 10 10 6 11 10 3 10 -7 0 -13 5 -13 11 0 5 6 7 13 3 9 -6
9 -4 -1 8 -10 13 -10 17 0 21 10 3 10 7 1 17 -8 9 -9 19 -2 32 6 12 6 18 0 18
-7 0 -7 9 -1 25 6 16 6 25 0 25 -6 0 -10 5 -10 11 0 5 6 7 13 3 9 -6 9 -5 0 7
-10 12 -10 18 0 29 10 10 9 11 -3 5 -13 -8 -13 -7 -1 8 11 14 11 17 0 17 -12
0 -12 2 0 9 11 7 11 9 0 14 -12 5 -12 7 0 15 12 8 12 14 3 25 -7 7 -9 17 -5
21 15 14 12 38 -4 32 -13 -5 -13 -4 -4 8 6 8 11 18 10 22 -2 17 13 54 23 54 5
0 6 -6 3 -12 -4 -7 0 -5 8 5 8 9 19 17 26 17 6 0 11 4 11 9 0 5 8 7 19 4 10
-3 22 1 26 8 6 8 4 10 -6 4 -8 -5 -11 -4 -6 1 5 5 13 10 18 10 5 1 11 3 14 4
7 3 22 7 36 9 5 0 7 6 4 11 -4 6 5 10 19 10 14 0 35 9 47 21 11 11 23 18 26
15 3 -3 12 2 20 12 8 9 12 12 9 5 -4 -7 4 -6 24 3 16 9 30 20 30 25 0 5 8 9
18 9 21 0 94 38 104 54 5 7 8 6 8 -4 1 -12 3 -11 11 3 6 9 14 15 20 12 5 -4 9
-1 9 4 0 6 7 11 15 11 8 0 15 4 15 10 0 5 7 7 16 3 9 -3 23 3 35 16 11 12 24
19 30 16 5 -4 9 -1 9 5 0 7 7 10 15 6 9 -3 15 0 15 9 0 9 6 12 17 8 12 -5 14
-3 8 7 -6 10 -4 12 8 7 10 -3 17 -3 17 1 0 5 16 14 35 21 19 7 35 16 35 21 0
5 7 7 15 4 8 -4 15 -1 15 5 0 6 7 8 17 4 11 -4 14 -3 9 5 -4 7 -1 12 9 12 10
0 13 5 9 12 -5 7 -3 8 5 3 11 -6 57 10 71 26 3 3 21 11 40 19 19 7 41 18 49
24 7 5 20 11 28 12 8 2 23 10 32 18 10 9 21 13 24 9 4 -3 7 -1 7 5 0 6 6 9 14
6 7 -3 16 2 20 11 3 9 10 13 16 10 5 -3 10 0 10 7 0 9 3 9 10 -2 8 -13 10 -12
10 3 0 10 5 15 10 12 6 -3 10 -2 10 4 0 6 7 7 17 4 10 -4 14 -2 10 4 -4 6 11
16 33 23 22 7 37 17 34 21 -2 4 5 6 16 4 11 -2 20 0 20 6 0 5 7 9 15 9 9 0 18
7 22 16 5 13 7 13 14 2 7 -11 9 -11 9 1 0 7 6 11 15 8 8 -4 17 -1 21 5 5 7 2
8 -7 3 -10 -6 -11 -5 -3 4 6 7 21 13 33 14 11 1 21 6 21 12 0 6 10 11 22 12
11 1 24 6 27 12 4 5 19 13 34 16 15 4 27 11 27 16 0 5 7 6 15 3 8 -4 15 -1 15
5 0 6 7 11 15 11 8 0 15 5 15 11 0 5 5 7 10 4 6 -3 10 -1 10 4 0 6 3 10 8 9 4
-1 17 3 28 10 12 6 24 8 28 5 3 -3 6 -1 6 5 0 7 7 12 15 12 8 0 15 5 15 10 0
6 9 10 20 10 11 0 20 4 20 10 0 5 7 6 17 3 11 -4 14 -3 9 5 -4 7 -2 12 6 12 7
0 34 11 60 25 78 42 130 38 140 -10 2 -11 10 -19 16 -17 14 2 12 -20 -2 -30
-6 -4 -4 -13 3 -22 10 -11 10 -16 2 -16 -9 0 -9 -5 -1 -20 6 -11 7 -20 3 -20
-12 0 -10 -104 2 -112 7 -5 6 -8 0 -8 -12 0 -11 -92 0 -110 3 -5 1 -10 -5 -10
-8 0 -8 -6 0 -20 8 -14 8 -20 0 -20 -8 0 -8 -6 0 -20 6 -11 7 -20 3 -20 -9 0
-8 -203 1 -226 3 -8 1 -14 -5 -14 -6 0 -6 -7 1 -20 8 -14 8 -20 0 -20 -8 0 -8
-6 0 -20 6 -11 7 -20 3 -20 -9 0 -8 -194 2 -210 3 -5 1 -10 -6 -10 -10 0 -10
-3 -1 -12 7 -7 12 -17 12 -23 0 -5 -5 -3 -10 5 -6 9 -10 10 -10 3 0 -6 5 -15
11 -19 8 -4 7 -9 -2 -14 -10 -7 -10 -11 0 -24 9 -11 10 -16 2 -16 -6 0 -11 -5
-11 -11 0 -5 4 -8 9 -5 5 4 6 -9 1 -29 -5 -24 -4 -35 4 -35 7 0 6 -4 -3 -9 -7
-5 -9 -11 -4 -14 6 -4 7 -26 3 -51 -4 -27 -3 -49 4 -56 7 -7 7 -10 0 -10 -12
0 -12 -29 -1 -47 4 -6 1 -13 -5 -16 -10 -3 -10 -7 1 -20 9 -11 10 -17 2 -17
-6 0 -11 -5 -11 -11 0 -5 4 -8 9 -5 5 4 6 -9 1 -29 -5 -24 -4 -35 4 -35 7 0 6
-4 -3 -9 -7 -5 -9 -11 -4 -14 6 -4 7 -26 3 -51 -4 -27 -3 -49 4 -56 7 -7 7
-10 0 -10 -12 0 -12 -29 -1 -47 4 -6 1 -13 -5 -16 -10 -3 -10 -7 1 -20 9 -11
10 -17 2 -17 -6 0 -11 -5 -11 -11 0 -5 4 -8 9 -5 5 4 6 -9 1 -29 -5 -24 -4
-35 4 -35 7 0 6 -4 -3 -9 -7 -5 -9 -11 -4 -14 6 -4 7 -26 3 -51 -4 -27 -3 -49
4 -56 7 -7 7 -10 0 -10 -12 0 -12 -29 -1 -47 4 -6 1 -13 -5 -16 -10 -3 -10 -7
1 -20 9 -11 10 -17 2 -17 -6 0 -11 -5 -11 -11 0 -5 4 -8 9 -5 5 4 6 -9 1 -29
-5 -24 -4 -35 4 -35 7 0 6 -4 -3 -9 -7 -5 -9 -11 -4 -14 6 -4 7 -26 3 -51 -4
-27 -3 -49 4 -56 7 -7 6 -10 -1 -10 -8 0 -9 -9 -3 -30 5 -19 5 -30 -1 -30 -6
0 -5 -8 1 -20 6 -11 7 -20 3 -20 -5 0 -6 -21 -4 -46 2 -37 0 -45 -10 -38 -12
6 -12 5 0 -9 10 -13 11 -20 2 -30 -6 -8 -8 -17 -4 -20 3 -4 1 -7 -6 -7 -7 0
-10 -4 -7 -8 5 -9 -13 -26 -57 -55 -15 -9 -27 -14 -27 -10 0 5 -4 2 -9 -6 -5
-8 -17 -16 -27 -17 -9 -2 -20 -8 -24 -14 -4 -7 -11 -12 -16 -12 -18 -1 -39
-12 -52 -27 -8 -9 -11 -11 -8 -4 4 7 -4 6 -24 -3 -16 -9 -30 -21 -30 -27 0 -7
-4 -6 -10 3 -5 8 -10 10 -10 5 0 -9 -50 -36 -67 -36 -4 0 -12 -7 -16 -15 -5
-8 -12 -12 -18 -9 -5 4 -9 1 -9 -4 0 -6 -9 -11 -20 -11 -11 0 -23 -6 -26 -13
-2 -7 -14 -14 -27 -14 -12 -1 -23 -7 -25 -13 -2 -5 -8 -8 -13 -4 -5 3 -9 0 -9
-6 0 -6 -4 -9 -9 -5 -5 3 -12 1 -16 -5 -4 -6 -11 -8 -16 -5 -5 4 -9 1 -9 -4 0
-6 -7 -11 -15 -11 -8 0 -15 -8 -15 -17 0 -14 -2 -15 -9 -4 -6 10 -10 10 -16 1
-4 -6 -14 -9 -22 -6 -8 3 -11 1 -8 -4 3 -6 0 -10 -8 -10 -8 0 -20 -7 -27 -15
-7 -8 -21 -15 -31 -15 -11 0 -19 -5 -19 -11 0 -5 -4 -7 -10 -4 -6 3 -10 1 -10
-4 0 -6 5 -11 12 -11 6 0 8 -3 5 -7 -4 -3 10 -16 30 -28 21 -12 37 -27 35 -34
-1 -7 2 -10 8 -6 10 6 20 -1 64 -42 13 -12 27 -19 30 -16 3 4 6 1 6 -5 0 -7 7
-12 15 -12 9 0 18 -7 21 -15 3 -8 14 -17 25 -20 11 -4 16 -11 13 -17 -4 -6 -3
-8 3 -5 5 4 19 -2 30 -12 29 -27 83 -54 83 -41 0 6 5 8 10 5 6 -3 10 -3 10 2
0 4 29 21 65 38 36 16 65 33 65 38 0 4 4 6 9 2 5 -3 16 1 24 9 8 8 23 16 33
18 10 2 21 5 24 9 11 12 110 59 110 52 0 -5 5 0 11 9 5 10 18 18 29 18 10 0
26 7 34 16 9 8 25 16 36 17 11 1 20 5 20 10 0 8 61 33 69 28 2 -1 7 1 10 6 8
11 91 55 91 47 0 -2 6 1 14 8 8 7 11 17 8 22 -3 5 0 6 6 2 5 -3 28 12 51 34
22 22 35 40 28 40 -9 0 -9 2 0 8 16 10 44 78 36 86 -4 3 0 6 8 6 11 0 11 2 -1
10 -12 8 -12 10 -1 10 10 0 11 3 2 14 -8 10 -9 16 -1 21 5 3 10 15 10 26 0 14
-4 18 -12 13 -8 -5 -8 -1 1 10 13 15 13 19 0 27 -8 5 -9 9 -3 9 14 0 17 77 3
86 -6 3 -6 11 -1 17 13 19 14 69 0 61 -7 -5 -8 -3 -2 7 14 23 15 51 2 67 -8
10 -9 13 -2 9 9 -5 12 8 11 43 0 33 -4 47 -11 43 -8 -5 -8 -3 0 8 15 20 17 72
2 63 -7 -5 -8 -3 -2 7 14 23 15 52 2 61 -9 5 -9 8 -2 8 15 0 15 100 0 119 -8
11 -8 13 2 7 7 -4 12 -1 12 8 0 9 -6 16 -12 16 -9 0 -10 2 -2 8 14 9 15 104 1
95 -6 -4 -7 -1 -1 8 10 16 14 120 4 114 -4 -2 -7 2 -7 10 0 8 3 12 7 10 4 -2
7 20 7 50 -1 32 -5 55 -11 55 -8 0 -8 3 0 8 11 7 15 114 4 107 -4 -2 -7 2 -7
10 0 8 3 12 7 10 12 -7 8 120 -4 127 -7 5 -7 8 3 8 11 0 11 3 0 17 -8 9 -9 14
-3 10 8 -4 11 11 11 48 -1 32 -5 55 -11 55 -8 0 -8 3 0 8 11 7 15 114 4 107
-4 -2 -7 2 -7 10 0 8 3 12 7 10 4 -2 7 20 7 50 -1 32 -5 55 -11 55 -8 0 -8 3
0 8 11 7 15 114 4 107 -4 -2 -7 2 -7 10 0 8 3 12 7 10 4 -2 7 29 7 70 -1 41
-4 72 -7 70 -4 -2 -7 2 -7 10 0 8 4 12 8 10 10 -7 6 97 -5 114 -6 9 -5 12 1 8
6 -4 10 6 11 24 0 19 -3 27 -10 23 -7 -5 -8 -2 -2 7 13 22 14 42 1 58 -8 10
-8 13 -1 8 14 -8 14 90 0 112 -6 9 -5 12 1 8 13 -8 12 102 -1 122 -6 9 -5 12
2 7 14 -8 13 134 -2 153 -8 11 -8 13 0 8 8 -5 12 6 12 33 0 22 -4 42 -9 46 -6
4 -6 11 2 20 9 11 8 18 -2 31 -11 13 -11 15 -1 9 9 -6 12 -1 10 16 -2 12 -7
29 -12 37 -6 9 -5 12 1 8 7 -5 11 6 11 28 0 20 -5 35 -11 35 -8 0 -8 3 -2 8
13 9 15 42 3 42 -6 0 -8 7 -5 15 4 8 2 17 -3 20 -6 4 -10 14 -10 25 0 10 -7
20 -15 24 -8 3 -15 13 -15 21 0 9 -5 13 -10 10 -6 -4 -10 -3 -9 2 4 21 -3 32
-21 38 -11 3 -20 13 -20 21 0 8 -9 14 -20 14 -12 0 -32 7 -45 16 -14 9 -25 13
-25 9 0 -4 -7 -2 -15 5 -8 7 -15 9 -15 4 0 -4 -5 -3 -11 3 -7 7 -20 8 -34 3
-15 -6 -27 -4 -35 3 -10 9 -11 9 -6 0z"/>
<path d="M5128 4794 c-21 -14 -38 -22 -38 -18 0 3 -7 -2 -16 -10 -8 -9 -20
-14 -25 -11 -5 4 -9 1 -9 -5 0 -7 -6 -10 -14 -7 -8 3 -17 -1 -20 -9 -3 -9 -10
-12 -16 -9 -5 3 -10 1 -10 -5 0 -6 -4 -8 -10 -5 -5 3 -10 1 -10 -5 0 -7 -7
-10 -15 -6 -8 3 -15 2 -15 -2 0 -7 -58 -41 -80 -47 -31 -10 -60 -27 -62 -37 0
-7 -2 -17 -2 -23 -1 -5 -5 -16 -10 -24 -6 -9 -5 -12 2 -7 7 4 10 -4 10 -23 -1
-19 -5 -28 -12 -24 -8 5 -8 3 0 -8 12 -17 12 -98 0 -118 -6 -9 -5 -12 1 -8 12
8 11 -132 -2 -152 -5 -10 -4 -12 3 -7 7 4 12 1 12 -8 0 -8 -6 -17 -12 -19 -10
-4 -10 -6 0 -6 6 -1 12 -6 12 -12 0 -5 -5 -7 -12 -3 -7 5 -8 3 -2 -7 12 -19
12 -119 0 -112 -5 4 -6 1 0 -8 11 -18 12 -159 0 -159 -5 0 -4 -5 1 -12 8 -11
11 -312 3 -328 -1 -3 -1 -9 0 -15 7 -32 7 -96 0 -100 -5 -3 -6 -16 -1 -28 9
-27 8 -158 -2 -174 -4 -6 -4 -14 1 -17 10 -6 9 -176 -1 -193 -4 -6 -3 -14 3
-18 18 -11 -9 -125 -30 -125 -6 0 -8 -5 -5 -10 3 -6 -2 -13 -12 -17 -10 -4
-21 -11 -25 -17 -4 -6 -11 -11 -15 -12 -16 -1 -128 -58 -135 -69 -4 -5 -8 -6
-8 -2 0 5 -10 1 -22 -7 -12 -9 -30 -16 -39 -16 -9 0 -19 -7 -23 -15 -3 -8 -14
-15 -25 -15 -11 0 -23 -5 -26 -10 -4 -6 -11 -8 -16 -5 -5 4 -9 1 -9 -4 0 -6
-7 -11 -15 -11 -8 0 -15 -4 -15 -9 0 -7 -9 -12 -48 -21 -6 -2 -38 -17 -82 -41
-84 -44 -165 -83 -169 -81 -2 2 -8 -3 -13 -12 -5 -9 -19 -16 -32 -16 -13 0
-23 -6 -23 -15 0 -8 6 -15 14 -15 7 0 16 -7 19 -15 4 -8 10 -12 15 -9 5 3 9
-2 9 -11 0 -9 5 -13 10 -10 6 3 10 1 10 -4 0 -6 7 -11 15 -11 9 0 18 -7 21
-15 4 -8 12 -15 20 -15 8 0 14 -4 14 -8 0 -4 12 -15 28 -24 15 -9 38 -26 51
-37 13 -12 30 -21 38 -21 7 0 13 -7 13 -15 0 -8 9 -15 21 -15 11 0 17 -4 14
-10 -3 -5 1 -10 9 -10 9 0 16 -5 16 -11 0 -5 4 -8 9 -5 5 4 12 0 15 -6 5 -10
7 -10 12 0 3 6 14 12 25 12 10 0 19 4 19 9 0 6 9 8 20 6 11 -2 18 0 15 5 -3 5
6 12 20 16 14 3 25 10 25 16 0 5 4 7 9 3 5 -3 17 2 25 11 9 8 16 13 16 10 0
-3 16 3 36 14 19 11 40 17 46 14 6 -4 8 -3 5 3 -6 10 27 27 46 24 4 -1 7 3 7
8 0 8 37 24 53 22 4 -1 7 3 7 9 0 5 9 10 19 10 11 0 23 5 26 11 6 9 40 25 58
27 4 1 15 8 23 17 9 8 20 13 25 10 5 -4 9 -2 9 3 0 10 58 36 73 33 4 0 7 3 7
8 0 8 37 24 53 22 4 -1 7 2 7 7 0 4 20 16 45 27 25 11 45 25 45 31 0 7 7 14
15 18 8 3 15 12 15 21 0 8 4 15 9 15 6 0 8 9 6 20 -2 11 1 20 7 20 6 0 5 7 -3
17 -10 11 -10 14 -1 9 15 -9 15 -1 1 26 -8 15 -8 19 0 14 6 -4 11 -3 11 3 0 5
-5 13 -10 16 -7 4 -7 13 0 24 6 12 5 22 -3 31 -9 10 -9 11 1 6 15 -9 16 6 0
22 -8 8 -9 12 -1 12 13 0 12 18 -1 39 -6 9 -5 12 1 8 13 -8 11 52 -2 73 -5 9
-4 11 3 6 16 -9 15 7 0 22 -8 8 -9 12 -1 12 13 0 12 18 -1 39 -6 9 -5 12 1 8
13 -8 11 52 -2 73 -5 9 -4 11 3 6 16 -9 15 7 0 22 -8 8 -9 12 -1 12 13 0 12
18 -1 39 -6 9 -5 12 1 8 13 -8 11 52 -2 73 -5 9 -4 11 3 6 7 -4 12 -3 12 3 0
5 -5 13 -10 16 -7 4 -7 13 0 24 6 12 5 22 -3 31 -8 9 -8 11 -1 7 14 -8 13 51
-1 73 -5 9 -4 11 3 6 7 -4 12 -3 12 3 0 5 -5 13 -10 16 -7 4 -7 13 0 24 6 12
5 22 -3 31 -8 9 -8 11 -1 7 14 -8 13 51 -1 73 -5 9 -4 11 3 6 7 -4 12 -3 12 3
0 5 -5 13 -10 16 -7 4 -7 13 0 24 6 12 5 22 -3 31 -8 9 -8 11 -1 7 14 -8 13
51 -1 73 -5 9 -4 11 3 6 7 -4 12 -3 12 3 0 5 -5 13 -10 16 -7 4 -7 13 0 24 6
12 5 22 -3 31 -8 9 -8 11 -1 7 14 -8 13 51 -1 73 -5 9 -4 11 3 6 7 -4 12 -3
12 3 0 5 -5 13 -10 16 -7 4 -7 13 0 24 6 12 5 22 -3 31 -8 9 -8 11 -1 7 14 -8
13 51 -1 73 -5 9 -4 11 3 6 7 -4 12 -3 12 3 0 5 -5 13 -10 16 -7 4 -7 13 0 24
6 12 5 22 -3 31 -8 9 -8 11 -1 7 14 -8 13 51 -1 73 -5 9 -4 11 3 6 7 -4 12 -3
12 3 0 5 -5 13 -10 16 -7 4 -7 13 0 24 6 12 5 22 -3 31 -8 9 -8 11 -1 7 14 -8
13 51 -1 73 -5 9 -4 11 3 6 16 -9 15 7 0 22 -8 8 -9 12 -1 12 13 0 12 18 -1
39 -6 9 -5 12 1 8 13 -8 11 52 -2 73 -5 9 -4 11 3 6 15 -9 16 6 1 21 -8 8 -8
13 0 17 8 5 8 13 0 28 -8 15 -8 19 0 14 6 -4 11 -4 11 -1 0 4 -5 16 -11 27 -8
15 -8 19 0 14 6 -4 11 -4 11 -1 0 4 -5 16 -11 27 -7 13 -7 18 -1 14 6 -4 10 2
9 14 -1 11 -4 20 -8 20 -4 0 -9 6 -11 14 -2 10 -12 8 -40 -10z"/>
<path d="M4600 4545 c0 -5 -12 -19 -27 -29 -17 -13 -24 -14 -19 -5 5 9 3 8 -6
-2 -7 -9 -19 -14 -27 -11 -8 3 -11 0 -7 -6 3 -5 -1 -13 -10 -16 -8 -3 -13 -2
-10 2 3 5 -1 9 -8 9 -9 0 -12 -7 -8 -16 3 -9 2 -13 -2 -9 -5 4 -24 -2 -43 -13
-19 -11 -39 -16 -45 -13 -7 5 -8 2 -3 -6 6 -10 4 -12 -9 -7 -10 4 -15 3 -11
-3 3 -6 -1 -10 -10 -10 -9 0 -13 -4 -10 -10 4 -6 -1 -7 -11 -3 -12 5 -15 3 -9
-6 5 -10 2 -11 -14 -6 -13 4 -21 2 -21 -5 0 -7 -7 -10 -15 -6 -9 3 -15 0 -15
-8 0 -8 -8 -17 -17 -20 -10 -4 -13 -10 -8 -14 13 -9 18 -35 5 -27 -5 3 -10 2
-10 -4 0 -5 6 -12 13 -14 9 -4 9 -6 -1 -6 -8 -1 -10 -6 -5 -13 10 -17 13 -39
4 -34 -4 3 -7 -4 -7 -14 0 -10 3 -17 7 -14 9 5 6 -17 -4 -33 -5 -8 -3 -13 5
-13 8 0 9 -3 3 -8 -16 -11 -19 -46 -3 -36 10 6 10 4 -1 -9 -10 -13 -10 -17 -1
-17 10 0 10 -3 0 -15 -10 -12 -10 -15 0 -15 10 0 10 -3 1 -14 -9 -11 -9 -15 1
-19 10 -4 10 -6 1 -6 -7 -1 -13 -6 -13 -12 0 -5 5 -7 11 -3 8 5 8 1 0 -14 -8
-15 -8 -22 2 -25 9 -4 9 -6 0 -6 -7 -1 -13 -6 -13 -12 0 -5 6 -7 13 -3 9 6 9
4 -1 -8 -10 -13 -10 -17 0 -21 10 -4 10 -6 -1 -6 -10 -1 -11 -4 -2 -15 9 -11
9 -16 0 -21 -8 -6 -7 -10 2 -16 12 -7 12 -9 0 -9 -11 0 -11 -3 0 -17 10 -11
10 -14 2 -9 -7 4 -13 2 -13 -3 0 -6 5 -11 12 -11 6 0 3 -7 -8 -16 -10 -8 -14
-13 -7 -10 15 8 27 -11 12 -20 -8 -4 -7 -9 2 -15 12 -7 12 -9 0 -9 -11 0 -11
-3 0 -17 10 -11 10 -14 2 -9 -14 8 -18 -6 -6 -18 10 -10 11 -46 1 -40 -13 8
-6 -29 7 -38 6 -5 5 -8 -4 -8 -10 0 -11 -3 -2 -14 9 -11 9 -16 0 -21 -8 -6 -7
-10 2 -16 11 -7 11 -9 -1 -9 -13 0 -13 -1 0 -10 12 -8 12 -10 1 -10 -10 0 -11
-3 -3 -13 7 -8 7 -18 2 -27 -14 -21 -12 -32 3 -24 8 5 8 2 -2 -9 -11 -14 -11
-17 0 -17 12 0 12 -2 0 -9 -9 -6 -10 -10 -2 -16 9 -5 9 -10 0 -21 -9 -11 -9
-14 1 -14 9 0 10 -3 1 -13 -6 -8 -8 -17 -4 -20 3 -4 2 -7 -4 -7 -6 0 -9 -11
-8 -25 2 -14 0 -23 -5 -20 -4 3 -10 -5 -13 -16 -4 -13 -10 -18 -18 -13 -7 4
-10 3 -6 -3 4 -6 -1 -17 -10 -24 -14 -12 -16 -12 -9 1 4 8 1 7 -8 -4 -8 -10
-20 -15 -27 -10 -8 4 -10 3 -5 -4 5 -8 -1 -12 -14 -12 -14 0 -19 -4 -14 -12 5
-7 2 -9 -9 -5 -9 3 -18 0 -21 -9 -3 -9 -10 -12 -16 -9 -5 3 -10 1 -10 -6 0 -7
-3 -9 -6 -6 -4 4 -20 -3 -37 -15 -17 -12 -27 -17 -23 -10 8 13 -55 -18 -65
-32 -4 -5 -12 -5 -19 -1 -9 5 -11 4 -6 -3 4 -8 0 -12 -11 -12 -10 0 -27 -7
-37 -15 -10 -8 -23 -12 -29 -8 -6 4 -7 1 -2 -7 6 -10 4 -12 -9 -7 -10 4 -15 3
-11 -3 6 -9 -8 -14 -27 -11 -5 0 -8 -4 -8 -10 0 -6 -5 -9 -12 -7 -6 2 -20 -4
-31 -15 -10 -10 -25 -16 -33 -13 -8 3 -14 -1 -14 -9 0 -8 -3 -14 -7 -13 -17 3
-62 -15 -57 -23 3 -5 -2 -6 -10 -3 -9 3 -16 1 -16 -5 0 -6 -6 -11 -14 -11 -8
0 -17 -6 -19 -12 -4 -10 -6 -10 -6 0 -1 6 -6 12 -12 12 -5 0 -8 -3 -6 -7 6
-10 -19 -34 -26 -26 -4 3 -14 -2 -24 -12 -16 -17 -16 -18 7 -36 14 -10 34 -27
44 -36 14 -13 17 -14 12 -3 -5 9 -2 8 7 -2 8 -10 19 -18 26 -18 6 0 11 -7 11
-16 0 -8 5 -12 10 -9 6 3 10 1 10 -5 0 -6 5 -8 10 -5 6 3 10 -2 10 -12 0 -15
2 -16 10 -3 8 13 10 12 10 -3 0 -9 3 -16 8 -15 4 2 8 -1 9 -7 1 -5 12 -13 25
-16 13 -3 22 -11 20 -17 -1 -7 7 -12 17 -12 11 0 27 -10 35 -22 9 -12 16 -18
16 -13 0 5 9 -1 21 -13 11 -12 25 -20 30 -16 5 3 17 0 25 -7 12 -10 13 -9 8 6
-5 13 -4 16 4 11 7 -4 15 0 18 9 5 13 9 13 22 3 9 -8 13 -8 9 -2 -9 16 19 38
38 30 9 -3 13 -2 10 4 -3 6 -1 10 4 10 22 0 26 2 42 16 9 8 19 11 22 7 4 -3 7
-1 7 6 0 7 5 9 10 6 6 -3 13 1 16 10 6 13 8 14 15 3 7 -10 9 -10 9 0 0 6 7 12
16 12 9 0 12 5 8 13 -4 6 -4 9 1 5 4 -4 14 -3 22 4 7 6 16 8 20 4 4 -3 16 3
29 15 19 18 37 25 67 28 5 1 5 6 1 12 -4 8 0 9 15 4 13 -4 21 -2 21 5 0 7 7
10 14 7 9 -4 13 -1 10 6 -3 8 5 13 17 14 12 1 25 6 28 11 3 5 14 8 24 6 9 -1
15 2 11 7 -5 8 0 10 33 13 6 1 22 11 35 22 14 11 34 20 46 19 11 -1 19 2 17 6
-3 4 7 15 21 24 18 11 24 13 19 4 -5 -8 1 -6 12 4 11 9 23 14 27 10 4 -4 4 1
0 10 -4 12 -2 17 7 15 9 -2 13 4 11 16 -2 10 1 15 6 12 5 -3 16 2 23 11 10 12
10 14 2 9 -7 -4 -13 -2 -13 3 0 6 4 11 10 11 5 0 6 7 3 17 -5 12 -3 14 8 8 12
-8 12 -6 0 8 -11 14 -11 17 0 17 11 0 11 2 -1 10 -13 9 -13 10 0 10 13 0 13 1
0 10 -13 9 -13 10 0 10 13 0 13 1 0 10 -11 7 -11 10 -2 10 9 0 10 5 3 19 -6
10 -7 21 -4 25 10 10 11 66 1 60 -12 -8 -10 10 4 24 9 9 9 12 -3 12 -12 0 -12
2 1 10 10 6 11 10 3 10 -7 0 -13 5 -13 11 0 5 3 8 8 6 4 -3 7 8 7 23 1 16 -3
26 -7 24 -12 -8 -9 11 4 24 9 9 9 12 -1 12 -11 0 -11 3 0 17 10 11 10 14 2 9
-7 -4 -13 -3 -13 3 0 5 5 13 11 17 8 4 7 9 -2 15 -12 8 -11 11 1 19 11 7 11
10 2 10 -8 0 -10 5 -5 13 12 19 12 36 1 43 -6 4 -5 10 3 15 11 7 11 9 1 9 -8
0 -10 5 -5 13 11 18 11 57 0 64 -5 3 -3 9 4 14 11 7 11 9 -1 9 -13 0 -13 1 0
10 11 7 11 10 2 10 -8 0 -10 5 -5 13 12 19 12 36 1 43 -6 4 -5 10 3 15 11 7
11 9 -1 9 -13 0 -13 2 -1 9 12 8 12 12 2 25 -11 13 -11 16 0 16 11 0 11 2 -1
10 -12 8 -12 10 -1 10 10 0 11 3 2 14 -9 11 -9 15 1 19 10 4 10 6 1 6 -7 1
-13 6 -13 12 0 5 4 8 8 5 5 -3 9 1 9 9 0 8 -5 15 -10 15 -5 0 -3 8 4 17 10 11
10 14 2 9 -7 -4 -13 -2 -13 3 0 6 5 11 11 11 8 0 8 4 0 14 -9 11 -9 15 1 19
10 4 10 6 1 6 -7 1 -13 6 -13 12 0 5 4 8 8 5 5 -3 9 1 9 9 0 8 -5 15 -10 15
-5 0 -3 8 4 17 10 11 10 14 2 9 -16 -9 -17 6 -1 22 9 9 9 12 -1 12 -11 0 -11
3 0 17 10 11 10 14 2 9 -7 -4 -13 -2 -13 3 0 6 4 11 8 11 5 0 9 7 9 15 0 8 -4
12 -9 9 -4 -3 -8 0 -8 5 0 6 5 11 11 11 8 0 9 4 0 13 -6 8 -8 17 -4 21 11 10
12 37 2 30 -13 -8 -11 10 3 24 9 9 9 12 -1 12 -7 0 -9 5 -4 13 11 18 13 38 2
31 -5 -3 -9 -1 -9 5 0 5 5 13 11 17 8 4 7 9 -2 15 -9 6 -10 12 -4 17 13 10 18
35 5 27 -14 -9 -13 8 3 24 10 11 9 12 -3 6 -13 -8 -13 -7 -1 8 11 14 11 17 0
17 -11 0 -11 2 1 10 13 9 13 10 0 10 -13 0 -13 1 0 10 12 8 11 10 -7 10 -12 0
-24 6 -26 13 -3 6 -6 8 -7 2z"/>
<path d="M1890 2230 c0 -5 5 -10 11 -10 5 0 7 5 4 10 -3 6 -8 10 -11 10 -2 0
-4 -4 -4 -10z"/>
</g>
</svg>
